<svg xmlns="http://www.w3.org/2000/svg" xmlns:xlink="http://www.w3.org/1999/xlink" viewBox="0 0 238.12 63.11"><defs><style>.cls-1{fill:url(#linear-gradient);}.cls-2{fill:url(#linear-gradient-2);}.cls-3{fill:url(#linear-gradient-3);}.cls-4{fill:url(#linear-gradient-4);}.cls-5{fill:url(#linear-gradient-5);}.cls-6{fill:url(#linear-gradient-6);}.cls-7{fill:url(#linear-gradient-7);}.cls-8{fill:url(#linear-gradient-8);}.cls-9{fill:url(#linear-gradient-9);}.cls-10{fill:url(#linear-gradient-10);}.cls-11{fill:url(#linear-gradient-11);}.cls-12{fill:#fff;}.cls-13{fill:none;stroke:#fff;stroke-miterlimit:10;stroke-width:5px;}</style><linearGradient id="linear-gradient" x1="6.28" y1="-1.36" x2="6.28" y2="32.81" gradientUnits="userSpaceOnUse"><stop offset="0" stop-color="#606cb3"/><stop offset="1" stop-color="#4baee2"/></linearGradient><linearGradient id="linear-gradient-2" x1="25.54" y1="-2.06" x2="-8.84" y2="57.49" gradientUnits="userSpaceOnUse"><stop offset="0" stop-color="#4bc1ef"/><stop offset="1" stop-color="#606cb3"/><stop offset="1" stop-color="#4baee2"/></linearGradient><linearGradient id="linear-gradient-3" x1="49.98" y1="9.01" x2="33.54" y2="37.48" gradientUnits="userSpaceOnUse"><stop offset="0" stop-color="#606cb3"/><stop offset="0.35" stop-color="#549ed7"/><stop offset="0.54" stop-color="#4fb5e7"/><stop offset="0.74" stop-color="#4fb6e7"/><stop offset="1" stop-color="#4eb7e8"/></linearGradient><linearGradient id="linear-gradient-4" x1="41.51" y1="4.12" x2="25.07" y2="32.59" xlink:href="#linear-gradient-3"/><linearGradient id="linear-gradient-5" x1="17.17" y1="53.15" x2="12.58" y2="61.1" xlink:href="#linear-gradient-2"/><linearGradient id="linear-gradient-6" x1="21.53" y1="53.15" x2="16.95" y2="61.1" xlink:href="#linear-gradient-2"/><linearGradient id="linear-gradient-7" x1="26.42" y1="4.13" x2="51.31" y2="4.13" gradientUnits="userSpaceOnUse"><stop offset="0" stop-color="#606cb3"/><stop offset="0.03" stop-color="#5f6eb5"/><stop offset="0.68" stop-color="#53a3da"/><stop offset="1" stop-color="#4eb7e8"/></linearGradient><linearGradient id="linear-gradient-8" x1="26.42" y1="33.66" x2="51.31" y2="33.66" xlink:href="#linear-gradient-7"/><linearGradient id="linear-gradient-9" x1="47.82" y1="7.76" x2="31.38" y2="36.23" xlink:href="#linear-gradient-3"/><linearGradient id="linear-gradient-10" x1="26.42" y1="21.68" x2="51.31" y2="21.68" xlink:href="#linear-gradient-7"/><linearGradient id="linear-gradient-11" x1="23.55" y1="49.38" x2="42.71" y2="49.38" xlink:href="#linear-gradient-3"/></defs><g id="Layer_2" data-name="Layer 2"><g id="Layer_2-2" data-name="Layer 2"><polygon class="cls-1" points="0 0 0 62.59 12.57 0 0 0"/><polygon class="cls-2" points="12.57 0 0 62.59 29.12 0 12.57 0"/><path class="cls-3" d="M37.13,39.14c2.43-.36,11.67-2.57,13.5-15,2-13.53-7.93-19.37-9.06-20C48.81,26.62,39.6,36.89,37.13,39.14Z"/><path class="cls-4" d="M41.47,4.1l0,.12,0-.08Z"/><rect class="cls-5" x="13.34" y="52.72" width="3.08" height="8.82"/><rect class="cls-6" x="17.7" y="52.72" width="3.08" height="8.82"/><path class="cls-7" d="M41.56,4.1l0,0,0,0S41.56,4.12,41.56,4.1Z"/><path class="cls-8" d="M36.55,39.63a7.47,7.47,0,0,0,.58-.49,5.75,5.75,0,0,1-.58.07s13.16-10.58,5-35L26.42,35.66,42.71,63.11l8.6-.52Z"/><path class="cls-9" d="M36.55,39.21a5.75,5.75,0,0,0,.58-.07c2.47-2.25,11.68-12.52,4.44-35l0,0,0,.08C49.71,28.63,36.55,39.21,36.55,39.21Z"/><path class="cls-10" d="M36.55,39.21a5.75,5.75,0,0,0,.58-.07c2.47-2.25,11.68-12.52,4.44-35l0,0,0,.08C49.71,28.63,36.55,39.21,36.55,39.21Z"/><polygon class="cls-11" points="23.55 41.55 35.36 63.1 42.71 63.1 26.42 35.66 23.55 41.55"/><path class="cls-12" d="M87.74,37.94c7.74-6.88,5.14-20.74-4.84-23.35C76.94,13,70.48,13.34,64,12.78V56.05h7V41.7c6.56-.81,6.56-.81,9.76,4.1,1.23,1.9,2.47,3.78,3.7,5.67,3.62,5.58,3.79,5.66,10.83,4.38l-10-15.94C86.26,39.12,87,38.56,87.74,37.94Zm-4-6.43c-3.07,4.74-8,3-12.65,3.41V20c4.6.14,9.4-1.37,12.62,3.13A7.11,7.11,0,0,1,83.69,31.51Z"/><path class="cls-12" d="M196.05,31.65c-7.61-4.19-14.89-3.61-19,1.23s-4.05,13.2,0,18.17c4.15,5.12,10.53,5.5,18.86,1.05.21.85.41,1.68.6,2.44h6.21V8.79h-6.66Zm-7.35,18.1a7.89,7.89,0,0,1-7.88-8,7.56,7.56,0,0,1,7.8-7.87c4.78,0,7.58,2.9,7.58,7.82S193.43,49.65,188.7,49.75Z"/><path class="cls-12" d="M128.12,40.1c-.88-6.51-4.86-10.58-11-11.42a14.51,14.51,0,0,0-14.93,8.7,13.1,13.1,0,0,0,3.92,15.06,14.81,14.81,0,0,0,17.77-.18L121.15,48c-5.64,2.36-9.56,2.26-11.51-1.7l9.1-3.1ZM108,42.54c0-4.66,1.62-7.47,4.56-8.38,3.4-1,5.82,0,8.28,3.8-2.12.79-4.16,1.58-6.21,2.31S110.38,41.73,108,42.54Z"/><path class="cls-12" d="M160.53,54.47h5.94V29.92h-5.94Z"/><path class="cls-12" d="M142.61,34.2a3.63,3.63,0,0,1,1.92-.81,11.22,11.22,0,0,1,3.8.92l.24.06,1.63.54,1.86-3.62L149.25,30h0a13.44,13.44,0,0,0-9.78-.63c-3.24,1.13-5.24,3.43-5.41,6.82a6.88,6.88,0,0,0,4.76,7.17c1.55.61,3.28.94,4.61,1.85a5.33,5.33,0,0,1,1.37,1.53,2.14,2.14,0,0,1-.58,2.93,3.14,3.14,0,0,1-2,.78,22.18,22.18,0,0,1-5.09-1.52h0l-3-1.52-2.13,3,2.54,2.09,0,0,0,0,0,0h0c4,3,9,4,13.12,1.71a7,7,0,0,0,4.1-6.86c0-3.15-1.45-5.53-4.38-6.67a22.87,22.87,0,0,1-4.18-2.29,4.68,4.68,0,0,1-1.21-1.22A2.12,2.12,0,0,1,142.61,34.2Z"/><circle class="cls-12" cx="163.43" cy="22.8" r="3.04"/><path class="cls-13" d="M235.62,41.83A10.87,10.87,0,1,1,224.75,31,10.88,10.88,0,0,1,235.62,41.83Z"/></g></g></svg>